<svg id="Capa_1" enable-background="new 0 0 512 512" height="512" viewBox="0 0 512 512" width="512" xmlns="http://www.w3.org/2000/svg"><g><g><path clip-rule="evenodd" d="m7.558 222.97v66.032c0 13.688 11.166 24.854 24.826 24.854h28.425c4.138 13.688 9.664 26.753 16.409 39.081l-20.263 20.235c-9.664 9.664-9.664 25.478 0 35.142l46.704 46.704c9.664 9.664 25.478 9.664 35.142 0l20.263-20.263c12.3 6.745 25.393 12.271 39.053 16.409v28.425c0 13.66 11.194 24.854 24.854 24.854h66.032c13.688 0 24.854-11.194 24.854-24.854v-27.376c14.113-3.996 27.603-9.466 40.299-16.211l19.016 19.016c9.664 9.664 25.478 9.664 35.142 0l46.704-46.704c9.664-9.664 9.664-25.478 0-35.142l-17.996-17.996c7.312-12.951 13.263-26.81 17.656-41.32h24.911c13.66 0 24.854-11.166 24.854-24.854v-66.032c0-13.66-11.194-24.854-24.854-24.854h-23.862c-4.251-14.964-10.117-29.219-17.457-42.567l16.749-16.749c9.664-9.664 9.664-25.478 0-35.142l-46.704-46.704c-9.664-9.664-25.478-9.664-35.142 0l-16.721 16.749c-13.376-7.312-27.632-13.206-42.595-17.429v-23.891c0-13.66-11.166-24.826-24.854-24.826h-66.033c-13.66 0-24.854 11.166-24.854 24.826v24.911c-14.51 4.393-28.34 10.344-41.32 17.656l-17.996-17.996c-9.664-9.664-25.478-9.664-35.142 0l-46.704 46.704c-9.664 9.664-9.664 25.478 0 35.142l19.044 19.044c-6.745 12.696-12.215 26.158-16.21 40.271h-27.405c-13.659.001-24.825 11.195-24.825 24.855z" fill="#9d9696" fill-rule="evenodd"/></g><g><path clip-rule="evenodd" d="m103.999 255.986c0 84.68 68.64 153.319 153.319 153.319s153.319-68.639 153.319-153.319-68.639-153.319-153.319-153.319-153.319 68.639-153.319 153.319z" fill="#eee1dc" fill-rule="evenodd"/></g><g><path clip-rule="evenodd" d="m228.95 248.391c0 15.672 12.696 28.368 28.368 28.368 15.644 0 28.34-12.696 28.34-28.368 0-15.644-12.696-28.34-28.34-28.34-15.672 0-28.368 12.696-28.368 28.34z" fill="#fd8087" fill-rule="evenodd"/></g><g><path clip-rule="evenodd" d="m321.537 395.277c-6.462-29.36-32.931-51.324-64.218-51.324s-57.785 21.964-64.218 51.324c19.526 9.012 41.291 14.028 64.218 14.028s44.663-5.016 64.218-14.028z" fill="#fdb440" fill-rule="evenodd"/></g><g><path clip-rule="evenodd" d="m408.314 56.954c-9.664-9.664-25.478-9.664-35.142 0l-16.721 16.749c-13.376-7.312-27.632-13.206-42.595-17.429v-23.891c0-13.66-11.166-24.826-24.854-24.826h-66.032c-5.271 0-10.174 1.644-14.227 4.478 38.996 16.551 72.664 51.579 96.384 98.226 61.271 20.093 105.51 77.737 105.51 145.724 0 61.469-36.162 114.494-88.392 138.951-15.445 45.174-39.194 83.15-68.299 109.506h35.057c13.688 0 24.854-11.194 24.854-24.854v-27.376c14.113-3.996 27.603-9.466 40.299-16.211l19.016 19.016c9.664 9.664 25.478 9.664 35.142 0l46.704-46.704c9.664-9.664 9.664-25.478 0-35.142l-17.996-17.996c7.312-12.951 13.263-26.81 17.656-41.32h24.911c13.66 0 24.854-11.166 24.854-24.854v-66.031c0-13.66-11.194-24.854-24.854-24.854h-23.862c-4.251-14.964-10.117-29.219-17.457-42.567l16.749-16.749c9.664-9.664 9.664-25.478 0-35.142z" fill="#746e6e" fill-rule="evenodd"/></g><g><path clip-rule="evenodd" d="m410.637 255.986c0-67.988-44.239-125.631-105.51-145.724 23.04 45.344 36.7 101.656 36.7 162.7 0 16.069-.935 31.797-2.749 47.129-3.146 26.441-8.899 51.607-16.834 74.846 52.232-24.458 88.393-77.482 88.393-138.951z" fill="#cdbeb9" fill-rule="evenodd"/></g><g><path clip-rule="evenodd" d="m285.658 248.391c0-15.644-12.696-28.34-28.34-28.34-3.372 0-6.603.595-9.607 1.672 10.713 4.024 18.336 14.397 18.336 26.526 0 12.3-7.793 22.757-18.733 26.696 3.089 1.162 6.462 1.814 10.004 1.814 15.644 0 28.34-12.696 28.34-28.368z" fill="#fd4755" fill-rule="evenodd"/></g><g><path clip-rule="evenodd" d="m321.537 395.277c-6.462-29.36-32.931-51.324-64.218-51.324-15.19 0-29.275 5.158-40.441 13.858 5.64-1.559 11.563-2.409 17.684-2.409 30.267 0 56.028 20.547 63.51 48.433 8.104-2.238 15.954-5.101 23.465-8.558z" fill="#fe9737" fill-rule="evenodd"/></g><g><path d="m479.588 190.558h-18.232c-3.639-11.613-8.26-22.88-13.789-33.62l12.794-12.794c12.635-12.635 12.635-33.194 0-45.829l-46.704-46.704c-6.101-6.102-14.239-9.462-22.915-9.462-8.675 0-16.813 3.361-22.919 9.467l-12.772 12.794c-10.846-5.561-22.12-10.177-33.638-13.774v-18.253c0-17.856-14.539-32.383-32.411-32.383h-66.032c-17.872 0-32.411 14.527-32.411 32.383v19.381c-11.135 3.699-21.998 8.338-32.417 13.843l-13.998-13.997c-12.636-12.635-33.194-12.634-45.83 0l-46.703 46.704c-6.102 6.101-9.462 14.239-9.462 22.915s3.361 16.813 9.462 22.915l15.146 15.146c-5.032 10.103-9.254 20.579-12.601 31.268h-21.773c-17.856 0-32.383 14.54-32.383 32.412v66.033c0 17.872 14.527 32.411 32.383 32.411h22.894c3.422 10.31 7.659 20.402 12.646 30.124l-16.313 16.29c-6.102 6.101-9.462 14.239-9.462 22.915s3.361 16.814 9.47 22.923l8.728 8.7c2.956 2.947 7.741 2.939 10.687-.017s2.939-7.741-.017-10.687l-8.72-8.692c-3.247-3.246-5.035-7.589-5.035-12.227s1.788-8.98 5.031-12.223l20.263-20.235c2.376-2.372 2.902-6.029 1.29-8.974-6.564-11.997-11.882-24.661-15.804-37.64-.964-3.189-3.903-5.371-7.234-5.371h-28.424c-9.522 0-17.268-7.759-17.268-17.297v-66.033c0-9.537 7.747-17.297 17.268-17.297h27.405c3.381 0 6.351-2.246 7.271-5.498 3.78-13.349 9.033-26.398 15.613-38.785 1.559-2.933 1.019-6.54-1.33-8.89l-19.044-19.044c-3.247-3.246-5.035-7.589-5.035-12.227s1.788-8.98 5.035-12.227l46.704-46.704c6.741-6.743 17.711-6.744 24.454 0l17.996 17.996c2.398 2.397 6.1 2.904 9.053 1.24 12.625-7.112 26.016-12.834 39.8-17.007 3.187-.965 5.367-3.903 5.367-7.233v-24.911c0-9.522 7.759-17.268 17.297-17.268h66.033c9.537 0 17.297 7.747 17.297 17.268v23.89c0 3.383 2.249 6.354 5.505 7.273 14.142 3.991 27.945 9.639 41.024 16.787 2.945 1.609 6.6 1.084 8.973-1.292l16.716-16.745c3.247-3.246 7.589-5.034 12.227-5.034 4.639 0 8.98 1.788 12.228 5.035l46.704 46.704c6.742 6.742 6.742 17.712 0 24.454l-16.749 16.749c-2.377 2.377-2.899 6.04-1.279 8.986 7.091 12.894 12.747 26.685 16.811 40.99.924 3.25 3.892 5.492 7.27 5.492h23.862c9.538 0 17.298 7.759 17.298 17.297v66.033c0 9.537-7.76 17.297-17.298 17.297h-24.91c-3.33 0-6.268 2.18-7.233 5.368-4.19 13.842-9.912 27.23-17.004 39.794-1.669 2.955-1.163 6.66 1.237 9.059l17.996 17.996c6.742 6.742 6.742 17.712 0 24.454l-46.704 46.705c-3.247 3.246-7.589 5.034-12.228 5.034-4.638 0-8.979-1.788-12.227-5.035l-19.018-19.017c-2.349-2.349-5.959-2.888-8.889-1.33-12.367 6.57-25.426 11.823-38.814 15.614-3.252.921-5.498 3.89-5.498 7.271v27.376c0 9.537-7.76 17.297-17.297 17.297h-66.032c-9.537 0-17.297-7.759-17.297-17.297v-28.425c0-3.33-2.18-6.268-5.366-7.233-13.035-3.948-25.688-9.265-37.609-15.803-2.945-1.615-6.602-1.092-8.978 1.282l-20.263 20.263c-6.742 6.743-17.712 6.743-24.454 0l-13.094-13.092c-2.951-2.95-7.736-2.95-10.688 0-2.951 2.951-2.951 7.737 0 10.688l13.093 13.093c12.635 12.634 33.193 12.635 45.83 0l16.312-16.312c9.679 4.972 19.764 9.208 30.102 12.643v22.896c0 17.872 14.54 32.411 32.411 32.411h66.033c17.872 0 32.41-14.54 32.41-32.411v-21.743c10.715-3.353 21.202-7.575 31.297-12.602l15.119 15.118c6.101 6.102 14.239 9.462 22.914 9.462 8.676 0 16.814-3.361 22.915-9.462l46.704-46.705c12.635-12.635 12.635-33.194 0-45.829l-13.994-13.994c5.494-10.386 10.132-21.25 13.841-32.42h19.38c17.872 0 32.411-14.54 32.411-32.411v-66.032c.001-17.872-14.539-32.412-32.411-32.412z"/><path d="m248.054 102.755c-.452-4.149-4.186-7.144-8.331-6.695-39.165 4.265-75.337 22.789-101.852 52.161-26.716 29.593-41.429 67.864-41.429 107.765 0 64.285 37.906 119.875 92.536 145.617.582.379 1.222.684 1.914.895 20.26 9.222 42.754 14.365 66.427 14.365s46.166-5.143 66.426-14.365c.693-.211 1.334-.516 1.917-.897 54.628-25.743 92.533-81.331 92.533-145.616 0-81.68-61.098-150.382-142.121-159.806-4.129-.485-7.897 2.487-8.38 6.633-.481 4.146 2.488 7.898 6.634 8.38 73.401 8.538 128.753 70.785 128.753 144.793 0 55.469-31.147 103.795-76.867 128.422-9.536-25.981-33.553-44.694-61.338-47.602v-53.298c16.177-3.483 28.34-17.902 28.34-35.117 0-19.794-16.103-35.897-35.897-35.897-19.809 0-35.926 16.104-35.926 35.897 0 17.217 12.177 31.637 28.368 35.119v53.296c-27.807 2.905-51.826 21.618-61.344 47.599-45.717-24.628-76.861-72.952-76.861-128.419 0-74.548 55.803-136.841 129.803-144.9 4.15-.451 7.146-4.18 6.695-8.33zm-11.547 145.636c0-11.46 9.336-20.783 20.811-20.783 11.459 0 20.783 9.323 20.783 20.783 0 11.475-9.324 20.811-20.783 20.811-11.475 0-20.811-9.336-20.811-20.811zm20.811 103.12c25.033 0 47.296 16.239 55.151 39.391-17.022 6.984-35.643 10.846-55.151 10.846-19.511 0-38.133-3.863-55.157-10.848 7.834-23.151 30.099-39.389 55.157-39.389z"/><path d="m202.568 307.272c1.777 0 3.562-.623 4.999-1.892 3.129-2.763 3.426-7.538.663-10.667-10.312-11.679-15.99-26.661-15.99-42.185 0-15.55 5.677-30.529 15.985-42.178 2.765-3.126 2.474-7.902-.652-10.668-3.126-2.765-7.902-2.474-10.668.652-12.755 14.415-19.78 32.951-19.78 52.194 0 19.21 7.023 37.745 19.775 52.188 1.494 1.692 3.576 2.556 5.668 2.556z"/><path d="m304.207 305.38c1.437 1.269 3.222 1.892 4.999 1.892 2.092 0 4.175-.864 5.669-2.556 12.751-14.444 19.774-32.978 19.774-52.188 0-19.242-7.025-37.778-19.78-52.194-2.766-3.126-7.543-3.418-10.667-.652-3.126 2.766-3.418 7.542-.652 10.668 10.308 11.65 15.986 26.629 15.986 42.178 0 15.523-5.679 30.505-15.991 42.185-2.764 3.129-2.467 7.905.662 10.667z"/><path d="m330.471 318.541c-2.766 3.126-2.474 7.902.652 10.667 1.438 1.273 3.225 1.898 5.005 1.898 2.089 0 4.17-.862 5.663-2.55 18.586-21.007 28.82-48.007 28.82-76.028 0-28.052-10.236-55.054-28.824-76.032-2.767-3.123-7.544-3.413-10.667-.644-3.124 2.768-3.412 7.544-.644 10.668 16.136 18.211 25.023 41.653 25.023 66.008-.001 24.328-8.89 47.772-25.028 66.013z"/><path d="m181.299 186.52c2.768-3.124 2.479-7.901-.644-10.668-3.125-2.768-7.902-2.479-10.668.644-18.588 20.978-28.824 47.98-28.824 76.032 0 28.021 10.235 55.021 28.82 76.028 1.493 1.688 3.573 2.55 5.663 2.55 1.78 0 3.567-.625 5.005-1.898 3.126-2.765 3.418-7.542.652-10.667-16.138-18.24-25.025-41.684-25.025-66.013-.001-24.355 8.885-47.797 25.021-66.008z"/></g></g></svg>